HIERARCHY
ROOT Hips
{
	OFFSET 0.000000 100.481300 0.000000
	CHANNELS 6 Xposition Yposition Zposition Xrotation Yrotation Zrotation
	JOINT Spine
	{
		OFFSET -0.279200 12.230698 -2.892100
		CHANNELS 3 Xrotation Yrotation Zrotation
		JOINT Spine1
		{
			OFFSET -0.325700 14.269203 -3.374200
			CHANNELS 3 Xrotation Yrotation Zrotation
			JOINT Spine2
			{
				OFFSET -0.372300 16.307602 -0.352600
				CHANNELS 3 Xrotation Yrotation Zrotation
				JOINT Neck
				{
					OFFSET -0.418800 17.814194 8.416900
					CHANNELS 3 Xrotation Yrotation Zrotation
					JOINT Head
					{
						OFFSET 0.000000 7.031097 3.806800
						CHANNELS 3 Xrotation Yrotation Zrotation
						JOINT HeadTop_End
						{
							OFFSET 0.000000 24.646606 12.978600
							CHANNELS 3 Xrotation Yrotation Zrotation
							End Site
							{
								OFFSET 0.000000 27.854965 0.000000
							}
						}
					}
				}
				JOINT LeftShoulder
				{
					OFFSET 16.952999 14.495407 -7.737500
					CHANNELS 3 Xrotation Yrotation Zrotation
					JOINT LeftArm
					{
						OFFSET 9.308998 -2.777710 0.208600
						CHANNELS 3 Xrotation Yrotation Zrotation
						JOINT LeftForeArm
						{
							OFFSET 29.972298 0.000000 0.000000
							CHANNELS 3 Xrotation Yrotation Zrotation
							JOINT LeftHand
							{
								OFFSET 26.026505 0.000000 0.000000
								CHANNELS 3 Xrotation Yrotation Zrotation
								JOINT LeftHandThumb1
								{
									OFFSET 12.240501 -7.147949 9.207150
									CHANNELS 3 Xrotation Yrotation Zrotation
									JOINT LeftHandThumb2
									{
										OFFSET 4.138618 -2.389435 2.389433
										CHANNELS 3 Xrotation Yrotation Zrotation
										JOINT LeftHandThumb3
										{
											OFFSET 2.726913 -1.574387 1.574386
											CHANNELS 3 Xrotation Yrotation Zrotation
											JOINT LeftHandThumb4
											{
												OFFSET 3.941010 -2.275345 2.275342
												CHANNELS 3 Xrotation Yrotation Zrotation
												End Site
												{
													OFFSET -0.005798 5.087799 0.009903
												}
											}
										}
									}
								}
								JOINT LeftHandIndex1
								{
									OFFSET 24.424698 -1.985611 5.953459
									CHANNELS 3 Xrotation Yrotation Zrotation
									JOINT LeftHandIndex2
									{
										OFFSET 6.426697 0.000000 0.000000
										CHANNELS 3 Xrotation Yrotation Zrotation
										JOINT LeftHandIndex3
										{
											OFFSET 5.337898 0.000000 0.000000
											CHANNELS 3 Xrotation Yrotation Zrotation
											JOINT LeftHandIndex4
											{
												OFFSET 4.409401 0.000000 0.000000
												CHANNELS 3 Xrotation Yrotation Zrotation
												End Site
												{
													OFFSET 0.000000 4.409363 0.014373
												}
											}
										}
									}
								}
								JOINT LeftHandMiddle1
								{
									OFFSET 23.810104 0.000000 0.000000
									CHANNELS 3 Xrotation Yrotation Zrotation
									JOINT LeftHandMiddle2
									{
										OFFSET 7.176498 0.000000 0.000000
										CHANNELS 3 Xrotation Yrotation Zrotation
										JOINT LeftHandMiddle3
										{
											OFFSET 6.774902 0.000000 0.000000
											CHANNELS 3 Xrotation Yrotation Zrotation
											JOINT LeftHandMiddle4
											{
												OFFSET 5.403328 0.000000 0.000000
												CHANNELS 3 Xrotation Yrotation Zrotation
												End Site
												{
													OFFSET -0.027702 5.403244 0.017414
												}
											}
										}
									}
								}
								JOINT LeftHandRing1
								{
									OFFSET 22.908401 -0.839279 -6.020567
									CHANNELS 3 Xrotation Yrotation Zrotation
									JOINT LeftHandRing2
									{
										OFFSET 6.337502 0.000000 0.000000
										CHANNELS 3 Xrotation Yrotation Zrotation
										JOINT LeftHandRing3
										{
											OFFSET 5.779297 0.000000 0.000000
											CHANNELS 3 Xrotation Yrotation Zrotation
											JOINT LeftHandRing4
											{
												OFFSET 4.965698 0.000000 0.000000
												CHANNELS 3 Xrotation Yrotation Zrotation
												End Site
												{
													OFFSET 0.000000 4.965668 0.016186
												}
											}
										}
									}
								}
								JOINT LeftHandPinky1
								{
									OFFSET 20.037003 -1.530319 -10.950146
									CHANNELS 3 Xrotation Yrotation Zrotation
									JOINT LeftHandPinky2
									{
										OFFSET 5.254700 0.000000 0.000000
										CHANNELS 3 Xrotation Yrotation Zrotation
										JOINT LeftHandPinky3
										{
											OFFSET 4.810204 0.000000 0.000000
											CHANNELS 3 Xrotation Yrotation Zrotation
											JOINT LeftHandPinky4
											{
												OFFSET 3.647202 0.000000 0.000000
												CHANNELS 3 Xrotation Yrotation Zrotation
												End Site
												{
													OFFSET 0.000000 3.647186 0.011889
												}
											}
										}
									}
								}
							}
						}
					}
				}
				JOINT RightShoulder
				{
					OFFSET -15.141001 14.495407 -7.737500
					CHANNELS 3 Xrotation Yrotation Zrotation
					JOINT RightArm
					{
						OFFSET -9.308998 -2.777710 0.208500
						CHANNELS 3 Xrotation Yrotation Zrotation
						JOINT RightForeArm
						{
							OFFSET -29.972300 0.000000 0.000000
							CHANNELS 3 Xrotation Yrotation Zrotation
							JOINT RightHand
							{
								OFFSET -26.026505 0.000000 0.000000
								CHANNELS 3 Xrotation Yrotation Zrotation
								JOINT RightHandThumb1
								{
									OFFSET -12.240601 -7.148026 9.207092
									CHANNELS 3 Xrotation Yrotation Zrotation
									JOINT RightHandThumb2
									{
										OFFSET -4.138618 -2.389435 2.389433
										CHANNELS 3 Xrotation Yrotation Zrotation
										JOINT RightHandThumb3
										{
											OFFSET -2.726974 -1.574417 1.574421
											CHANNELS 3 Xrotation Yrotation Zrotation
											JOINT RightHandThumb4
											{
												OFFSET -3.941010 -2.275345 2.275343
												CHANNELS 3 Xrotation Yrotation Zrotation
												End Site
												{
													OFFSET 0.005814 5.087799 0.009927
												}
											}
										}
									}
								}
								JOINT RightHandIndex1
								{
									OFFSET -24.424698 -1.985657 5.953444
									CHANNELS 3 Xrotation Yrotation Zrotation
									JOINT RightHandIndex2
									{
										OFFSET -6.426697 0.000000 0.000000
										CHANNELS 3 Xrotation Yrotation Zrotation
										JOINT RightHandIndex3
										{
											OFFSET -5.337898 0.000000 0.000000
											CHANNELS 3 Xrotation Yrotation Zrotation
											JOINT RightHandIndex4
											{
												OFFSET -4.409401 0.000000 0.000000
												CHANNELS 3 Xrotation Yrotation Zrotation
												End Site
												{
													OFFSET 0.000000 4.409363 0.014408
												}
											}
										}
									}
								}
								JOINT RightHandMiddle1
								{
									OFFSET -23.810097 0.000000 0.000000
									CHANNELS 3 Xrotation Yrotation Zrotation
									JOINT RightHandMiddle2
									{
										OFFSET -7.176498 0.000000 0.000000
										CHANNELS 3 Xrotation Yrotation Zrotation
										JOINT RightHandMiddle3
										{
											OFFSET -6.774902 0.000000 0.000000
											CHANNELS 3 Xrotation Yrotation Zrotation
											JOINT RightHandMiddle4
											{
												OFFSET -5.403328 0.000000 0.000000
												CHANNELS 3 Xrotation Yrotation Zrotation
												End Site
												{
													OFFSET 0.027702 5.403244 0.017457
												}
											}
										}
									}
								}
								JOINT RightHandRing1
								{
									OFFSET -22.908302 -0.839325 -6.020576
									CHANNELS 3 Xrotation Yrotation Zrotation
									JOINT RightHandRing2
									{
										OFFSET -6.337502 0.000000 0.000000
										CHANNELS 3 Xrotation Yrotation Zrotation
										JOINT RightHandRing3
										{
											OFFSET -5.779297 0.000000 0.000000
											CHANNELS 3 Xrotation Yrotation Zrotation
											JOINT RightHandRing4
											{
												OFFSET -4.965698 0.000000 0.000000
												CHANNELS 3 Xrotation Yrotation Zrotation
												End Site
												{
													OFFSET 0.000000 4.965668 0.016226
												}
											}
										}
									}
								}
								JOINT RightHandPinky1
								{
									OFFSET -20.037003 -1.530334 -10.950259
									CHANNELS 3 Xrotation Yrotation Zrotation
									JOINT RightHandPinky2
									{
										OFFSET -5.254700 0.000000 0.000000
										CHANNELS 3 Xrotation Yrotation Zrotation
										JOINT RightHandPinky3
										{
											OFFSET -4.810204 0.000000 0.000000
											CHANNELS 3 Xrotation Yrotation Zrotation
											JOINT RightHandPinky4
											{
												OFFSET -3.647202 0.000000 0.000000
												CHANNELS 3 Xrotation Yrotation Zrotation
												End Site
												{
													OFFSET 0.000000 3.647186 0.011917
												}
											}
										}
									}
								}
							}
						}
					}
				}
			}
		}
	}
	JOINT LeftUpLeg
	{
		OFFSET 15.427100 -6.655098 0.678600
		CHANNELS 3 Xrotation Yrotation Zrotation
		JOINT LeftLeg
		{
			OFFSET 4.081073 -39.591068 13.024000
			CHANNELS 3 Xrotation Yrotation Zrotation
			JOINT LeftFoot
			{
				OFFSET -4.081074 -37.707932 -15.979700
				CHANNELS 3 Xrotation Yrotation Zrotation
				JOINT LeftToeBase
				{
					OFFSET 5.346399 -15.068900 20.645000
					CHANNELS 3 Xrotation Yrotation Zrotation
					JOINT LeftToe_End
					{
						OFFSET 2.754700 0.931300 11.300900
						CHANNELS 3 Xrotation Yrotation Zrotation
						End Site
						{
							OFFSET 0.000000 11.669021 0.000000
						}
					}
				}
			}
		}
	}
	JOINT RightUpLeg
	{
		OFFSET -15.569500 -6.655098 0.678600
		CHANNELS 3 Xrotation Yrotation Zrotation
		JOINT RightLeg
		{
			OFFSET -4.081825 -39.591045 13.023800
			CHANNELS 3 Xrotation Yrotation Zrotation
			JOINT RightFoot
			{
				OFFSET 4.081824 -37.707954 -15.979600
				CHANNELS 3 Xrotation Yrotation Zrotation
				JOINT RightToeBase
				{
					OFFSET -5.346400 -15.068900 20.645000
					CHANNELS 3 Xrotation Yrotation Zrotation
					JOINT RightToe_End
					{
						OFFSET -2.754700 0.931300 11.300900
						CHANNELS 3 Xrotation Yrotation Zrotation
						End Site
						{
							OFFSET 0.000000 11.669021 0.000000
						}
					}
				}
			}
		}
	}
}
MOTION
Frames: 5
Frame Time: 0.033333
1.288452 48.173233 17.593609 5.459315 -1.442582 -1.254147 10.155252 -0.612911 -2.172343 -0.649834 -0.843083 -2.109040 -0.646920 -0.800315 -2.057917 -1.429124 0.365422 -2.035576 -17.493381 1.776384 -6.508062 0.000000 0.000000 -0.000001 -7.247246 -22.665911 4.151030 28.094991 -27.445520 -51.217239 -0.000052 -76.056096 -0.000055 15.483342 18.299767 59.664913 -1.061274 0.871405 23.774657 5.086364 20.080833 -31.819451 -6.912964 28.534720 8.052856 -0.000002 0.000000 0.000002 -0.822755 -0.053457 -15.637126 0.608669 2.602121 -26.326592 0.197076 1.508246 -14.888243 0.000001 -0.000001 -0.000001 0.237672 4.643800 -4.784915 0.523595 2.422779 -24.385985 0.397687 2.123488 -21.212406 -0.000001 0.000001 -0.000005 0.854714 8.986881 -6.900672 0.437208 2.222571 -22.254752 0.522083 2.419433 -24.350120 -0.000002 0.000003 -0.000003 1.088139 10.740243 -6.906890 0.143673 1.290792 -12.702014 0.087863 1.011911 -9.924898 -0.000003 0.000001 -0.000001 -19.437339 -5.510551 -6.522159 -51.697589 5.098581 47.385701 0.000027 127.721013 -0.000034 -26.608527 -2.328825 1.504085 18.322273 9.470774 0.810398 6.552619 -29.415029 11.349665 86.184611 -60.973659 47.306334 -0.000001 0.000003 -0.000000 4.234513 -1.990181 89.497786 3.724281 -4.562983 78.432394 3.182087 -4.417881 71.515516 0.000000 0.000001 -0.000000 0.582887 -6.795276 87.979694 3.687342 -4.555294 77.967641 1.434457 -3.363829 46.180685 -0.000001 0.000000 0.000000 -1.745280 -7.202345 92.241097 3.639430 -4.544844 77.363688 1.733435 -3.626624 51.081646 0.000000 -0.000001 -0.000000 -6.440878 -9.358366 99.956253 4.273129 -4.641351 85.264591 3.093745 -4.387441 70.364752 0.000001 -0.000000 0.000002 -93.293383 -15.180698 19.396819 82.598400 -1.545697 -3.225875 8.352741 -5.854968 -10.685551 -0.015326 0.000004 -0.000003 -0.000000 0.000000 0.000000 -93.940496 12.226470 -14.528181 81.453715 1.122298 3.750796 10.333049 -1.275363 8.708203 0.302105 -0.000379 0.219054 0.000000 0.000001 -0.000000 
1.159948 48.427353 17.183886 3.468520 -1.505919 -1.400520 10.174973 -1.001918 -2.506139 -0.578746 -1.301689 -2.591110 -0.577140 -1.264372 -2.539298 -0.362980 0.526185 -1.119595 -17.762496 3.131228 -5.353777 -0.000000 -0.000000 0.000002 -6.877720 -24.758631 4.261057 28.575801 -24.019692 -52.099751 0.000019 -75.422043 0.000026 14.275021 18.112200 59.410973 -0.681866 0.865374 23.635619 5.041398 20.002945 -31.538918 -6.947019 28.629074 8.041953 -0.000001 0.000001 0.000001 -0.810857 -0.040817 -15.522785 0.602867 2.590377 -26.198490 0.193738 1.495617 -14.760665 -0.000000 -0.000001 -0.000000 0.221651 4.686603 -4.177885 0.517677 2.409705 -24.245575 0.392526 2.110155 -21.072867 -0.000002 -0.000001 0.000004 0.779022 8.946317 -6.222570 0.427577 2.198895 -22.005112 0.511718 2.396416 -24.103686 0.000001 -0.000001 0.000002 0.937898 10.444570 -6.127034 0.142496 1.285566 -12.649609 0.086721 1.005342 -9.860065 -0.000001 0.000002 -0.000001 -7.061807 -7.417839 -5.770565 -52.168029 10.363040 50.811027 0.000033 110.382216 -0.000048 -22.062168 4.005826 -1.911977 18.519851 9.194916 0.430557 6.622161 -29.414387 11.287365 86.114479 -61.064254 47.308827 -0.000003 -0.000001 -0.000000 4.234414 -1.973476 89.121524 3.673502 -4.552319 77.793177 3.131973 -4.400852 70.863616 0.000000 0.000000 -0.000000 0.707985 -6.775874 87.627598 3.657656 -4.548867 77.593606 1.418688 -3.348647 45.911254 -0.000001 -0.000003 -0.000000 -1.764889 -7.155664 91.831347 3.607992 -4.537707 76.966629 1.711246 -3.608631 50.729963 0.000001 -0.000003 -0.000000 -6.072533 -9.108886 99.486527 4.213119 -4.635999 84.522498 3.037717 -4.367111 69.630814 -0.000001 0.000001 -0.000001 -91.114484 -14.653677 20.280927 82.258905 -0.987359 -3.143813 8.509543 -6.976927 -10.025587 0.040212 0.000008 -0.029047 -0.000000 -0.000000 0.000000 -92.066476 11.759274 -13.580977 81.246842 0.370563 3.089886 10.485878 -0.916922 8.135239 0.260324 -0.000272 0.189408 0.000000 -0.000001 -0.000000 
1.077855 48.753883 16.798117 1.731792 -1.799191 -1.269663 10.131858 -1.446740 -2.956543 -0.650242 -1.865707 -3.443171 -0.650931 -1.831726 -3.390751 1.125028 0.817567 -0.417973 -17.440685 4.906492 -4.052624 -0.000000 0.000000 0.000001 -6.647509 -24.532725 3.872533 29.435469 -21.402442 -51.525414 0.000053 -75.480216 0.000058 14.168982 18.774947 57.763340 -0.294329 0.861436 23.493838 4.992804 19.926102 -31.246978 -6.979742 28.726102 8.027390 -0.000000 -0.000001 0.000001 -0.806015 0.029575 -15.717315 0.596673 2.577786 -26.061043 0.190097 1.481691 -14.620221 -0.000003 -0.000000 0.000003 0.221996 4.768564 -4.006385 0.510216 2.393096 -24.067695 0.386063 2.093329 -20.896515 0.000000 0.000001 -0.000003 0.743639 8.927761 -5.904151 0.417539 2.173907 -21.742020 0.500811 2.371912 -23.841235 0.000002 0.000000 -0.000003 0.834703 10.216553 -5.690411 0.142272 1.284563 -12.639493 0.086382 1.003446 -9.841424 -0.000000 0.000001 -0.000002 -1.417329 -7.774416 -6.641749 -44.818940 20.174456 47.812171 -0.017021 89.407962 0.017132 -21.026686 11.482054 -7.959810 18.511583 9.052904 -0.050724 6.713087 -29.555776 11.370718 86.486280 -61.050287 47.635180 0.000000 -0.000000 -0.000002 4.247649 -1.941725 89.135239 3.687034 -4.555210 77.963761 3.145747 -4.405597 71.043222 0.000000 0.000001 -0.000002 0.900881 -6.785838 87.667028 3.663307 -4.550120 77.664817 1.422052 -3.351911 45.968942 0.000000 -0.000002 0.000000 -1.752035 -7.160908 91.880927 3.613359 -4.538929 77.034473 1.715233 -3.611886 50.793487 0.000003 0.000001 -0.000000 -5.563690 -8.965199 99.679555 4.230023 -4.637580 84.731830 3.051894 -4.372326 69.816773 0.000001 0.000000 -0.000001 -88.772057 -14.029424 21.043371 81.725618 -0.729694 -3.124625 8.466394 -7.570421 -9.873692 0.092885 0.000041 -0.067065 0.000000 0.000001 0.000000 -90.635989 11.353198 -12.420911 81.017826 -0.591639 2.263149 10.804762 -0.562051 7.178254 0.247276 -0.000244 0.179900 0.000000 0.000000 -0.000000 
1.012539 49.119377 16.323242 0.245187 -2.149263 -0.840688 10.144021 -1.701256 -3.349737 -0.598943 -2.225501 -4.281470 -0.598010 -2.194087 -4.227864 2.090061 1.068274 -0.273448 -16.991083 6.068124 -3.161085 -0.000000 0.000000 -0.000001 -6.584927 -22.169160 2.726824 30.008914 -21.167122 -48.573607 -0.000036 -75.068792 -0.000031 13.926900 19.341146 55.544574 0.098296 0.859633 23.350226 4.940837 19.850714 -30.945408 -7.011156 28.825219 8.009553 -0.000002 -0.000002 0.000003 -0.806707 0.139889 -16.148843 0.590712 2.565566 -25.928168 0.186548 1.468051 -14.482626 -0.000001 -0.000000 0.000001 0.236321 4.882454 -4.168252 0.501945 2.374512 -23.868670 0.378908 2.074485 -20.699638 0.000003 -0.000002 0.000001 0.739477 8.926089 -5.866099 0.407742 2.149181 -21.482002 0.490030 2.347425 -23.579833 -0.000001 -0.000000 -0.000000 0.762193 10.041835 -5.513557 0.142836 1.287078 -12.664728 0.086738 1.005456 -9.861142 -0.000001 -0.000000 0.000000 -0.504687 -7.600484 -8.319763 -35.984298 26.022920 41.777405 0.000080 78.043360 -0.000082 -21.485963 15.964119 -13.429760 18.395190 9.123973 -0.226469 6.742969 -29.673453 11.421399 87.209986 -61.055676 48.231992 0.000000 0.000000 0.000002 4.263870 -1.914608 89.296773 3.702659 -4.558507 78.160532 3.160416 -4.410604 71.233764 0.000002 -0.000001 0.000001 0.942470 -6.798026 87.836793 3.676955 -4.553069 77.836617 1.427429 -3.357085 46.060911 -0.000002 -0.000001 -0.000000 -1.758455 -7.180592 92.048718 3.622922 -4.541126 77.155415 1.722617 -3.617888 50.910454 0.000004 -0.000002 0.000001 -5.419760 -8.878532 100.069429 4.259270 -4.640197 85.093119 3.071794 -4.379568 70.077618 0.000001 -0.000001 0.000000 -86.606054 -13.248375 21.370514 81.033207 -0.636020 -3.256774 8.529763 -7.485913 -9.491566 0.132360 0.000067 -0.095542 -0.000000 0.000000 -0.000000 -89.287518 11.387580 -11.896643 80.279298 -0.838483 1.786559 11.944917 -0.439249 7.554916 0.192203 -0.001558 0.449935 -0.000000 -0.000001 0.000000 
0.965222 49.418991 15.852066 -0.931812 -2.327736 -0.278180 10.277663 -1.621045 -3.477411 -0.327132 -2.155923 -4.675796 -0.324456 -2.124793 -4.620996 2.177222 1.120838 -0.769495 -16.836882 5.901116 -3.046128 0.000000 0.000000 -0.000001 -6.530131 -19.672961 0.965523 29.704032 -22.624735 -44.789071 -0.000136 -73.666336 -0.000133 13.301828 18.896413 53.632606 0.493037 0.860313 23.205781 4.885948 19.777327 -30.636079 -7.041137 28.925995 7.988586 0.000000 -0.000003 -0.000001 -0.809155 0.270889 -16.708902 0.585132 2.554050 -25.803171 0.183247 1.455226 -14.353180 -0.000000 -0.000001 0.000001 0.259394 5.016950 -4.499251 0.493328 2.354960 -23.660095 0.371476 2.054761 -20.493771 -0.000002 0.000001 -0.000001 0.751131 8.932577 -5.970685 0.398231 2.124904 -21.227320 0.479575 2.323322 -23.322926 -0.000000 -0.000001 -0.000001 0.700631 9.890070 -5.459104 0.143872 1.291670 -12.710696 0.087475 1.009694 -9.903132 0.000002 0.000001 -0.000001 -0.682432 -7.794101 -9.069810 -36.293405 24.533655 40.582720 0.000179 82.953385 -0.000160 -22.549728 14.406669 -15.952556 18.403755 9.236875 0.189076 6.623498 -29.446103 11.179719 86.876359 -61.226109 47.944089 -0.000000 -0.000001 0.000002 4.244206 -1.909684 88.911441 3.612878 -4.538824 77.028565 3.069386 -4.378713 70.045987 0.000000 0.000002 0.000001 0.691075 -6.764068 87.460285 3.637518 -4.544432 77.339625 1.402580 -3.332992 45.634710 -0.000001 -0.000001 -0.000000 -1.852764 -7.123796 91.531406 3.574561 -4.529855 76.543697 1.689473 -3.590763 50.383273 -0.000001 -0.000000 0.000001 -5.857675 -8.820835 99.520391 4.174272 -4.632128 84.041837 2.977836 -4.344477 68.842276 -0.000002 -0.000001 -0.000000 -84.899456 -12.418331 21.253092 80.332245 -0.472274 -3.321511 8.698038 -7.285990 -9.153266 0.178739 0.000126 -0.129118 0.000000 -0.000000 0.000000 -88.062927 11.486995 -11.849250 79.615806 -0.885541 1.426306 12.542623 -0.310930 7.941105 0.238409 -0.002418 0.560899 -0.000000 0.000000 -0.000000 
